<?xml version="1.0" encoding="UTF-8" standalone="no"?>
<!-- Created with Inkscape (http://www.inkscape.org/) -->

<svg
   width="335.26355mm"
   height="111.56242mm"
   viewBox="0 0 335.26355 111.56242"
   version="1.1"
   id="svg23018"
   inkscape:version="1.2.2 (b0a8486541, 2022-12-01)"
   sodipodi:docname="logo.svg"
   xmlns:inkscape="http://www.inkscape.org/namespaces/inkscape"
   xmlns:sodipodi="http://sodipodi.sourceforge.net/DTD/sodipodi-0.dtd"
   xmlns="http://www.w3.org/2000/svg"
   xmlns:svg="http://www.w3.org/2000/svg">
  <sodipodi:namedview
     id="namedview23020"
     pagecolor="#ffffff"
     bordercolor="#000000"
     borderopacity="0.25"
     inkscape:showpageshadow="2"
     inkscape:pageopacity="0.0"
     inkscape:pagecheckerboard="0"
     inkscape:deskcolor="#d1d1d1"
     inkscape:document-units="mm"
     showgrid="false"
     inkscape:zoom="0.73851712"
     inkscape:cx="566.6761"
     inkscape:cy="175.35139"
     inkscape:window-width="1920"
     inkscape:window-height="996"
     inkscape:window-x="0"
     inkscape:window-y="0"
     inkscape:window-maximized="1"
     inkscape:current-layer="g18486" />
  <defs
     id="defs23015" />
  <g
     inkscape:label="Layer 1"
     inkscape:groupmode="layer"
     id="layer1"
     transform="translate(48.764173,-108.36583)">
    <g
       id="g18486"
       transform="matrix(0.26458333,0,0,0.26458333,1614.608,129.78128)"
       inkscape:export-filename="../PycharmProjects/xBFreE/docs/assets/logo.svg"
       inkscape:export-xdpi="96"
       inkscape:export-ydpi="96">
      <g
         id="g34489">
        <path
           style="fill:#ffffff;fill-opacity:1;fill-rule:evenodd;stroke:none;stroke-miterlimit:5"
           id="path12260-9"
           d="m -6267.5194,117.86064 c -35.7709,22.64045 -15.8638,63.80595 12.679,107.71767 44.3406,53.41635 4.7254,38.50757 52.3676,38.46375 83.2211,19.70092 92.478,69.49113 190.3218,74.6606 65.5676,10.8768 107.0176,-24.13927 157.5733,-62.72909 54.4769,-38.63104 131.1627,-23.08536 201.9926,-3.57647 76.9626,17.86197 116.0615,18.83586 195.1375,-8.64827 48.1494,-20.63729 155.0306,96.48603 209.5507,71.42482 57.762,2.65148 133.2678,-8.71159 168.8028,-42.87639 27.3596,-26.30455 50.6381,-116.78419 58.4012,-164.0646 7.7567,-47.241316 -28.4468,-118.478012 -51.3055,-149.897178 -19.6023,-26.94315 -107.7126,-38.54013 -130.0397,-46.09061 -81.7915,-27.65997 -209.4957,48.44908 -224.9618,14.03625 -51.7295,-56.943532 -78.6523,-8.3185 -147.3813,7.52711 -21.8994,4.34112 -79.374,-9.53695 -117.3133,-9.50194 -37.9393,0.035 -109.2183,47.560053 -148.0097,24.43276 -62.5154,-67.62265 -164.2295,-51.13343 -227.8015,-11.17849 -23.4096,-51.94374 -80.2824,-45.68206 -149.7453,-14.51123 -60.3114,30.64418 -38.0007,73.671315 2.3073,134.981778 z"
           sodipodi:nodetypes="ccccccccssssccsccccc" />
        <g
           id="g9139-6-5"
           transform="matrix(12.299145,0,0,12.299145,-6606.6069,-1563.4234)"
           style="fill:#a63fd9;fill-opacity:1">
          <text
             xml:space="preserve"
             style="font-style:normal;font-variant:normal;font-weight:normal;font-stretch:normal;font-size:50.8px;font-family:Z003;-inkscape-font-specification:'Z003, Normal';font-variant-ligatures:normal;font-variant-caps:normal;font-variant-numeric:normal;font-variant-east-asian:normal;fill:#a63fd9;fill-opacity:1;fill-rule:evenodd;stroke:#000000;stroke-width:0.264583"
             x="26.274858"
             y="143.43738"
             id="text113-32-0"><tspan
               sodipodi:role="line"
               id="tspan111-0-9"
               style="font-style:normal;font-variant:normal;font-weight:normal;font-stretch:normal;font-size:50.8px;font-family:Z003;-inkscape-font-specification:'Z003, Normal';font-variant-ligatures:normal;font-variant-caps:normal;font-variant-numeric:normal;font-variant-east-asian:normal;fill:#a63fd9;fill-opacity:1;stroke-width:0.264583"
               x="26.274858"
               y="143.43738">x</tspan></text>
          <text
             xml:space="preserve"
             style="font-style:normal;font-variant:normal;font-weight:bold;font-stretch:normal;font-size:16.9333px;font-family:'Tiresias Signfont Z';-inkscape-font-specification:'Tiresias Signfont Z, Bold';font-variant-ligatures:normal;font-variant-caps:normal;font-variant-numeric:normal;font-variant-east-asian:normal;fill:#a63fd9;fill-opacity:1;fill-rule:evenodd;stroke:#000000;stroke-width:0.264583"
             x="47.165863"
             y="142.44366"
             id="text113-3-6-6"><tspan
               sodipodi:role="line"
               id="tspan111-9-1-3"
               style="font-style:normal;font-variant:normal;font-weight:bold;font-stretch:normal;font-size:16.9333px;font-family:'Tiresias Signfont Z';-inkscape-font-specification:'Tiresias Signfont Z, Bold';font-variant-ligatures:normal;font-variant-caps:normal;font-variant-numeric:normal;font-variant-east-asian:normal;fill:#a63fd9;fill-opacity:1;stroke-width:0.264583"
               x="47.165863"
               y="142.44366">B</tspan></text>
          <text
             xml:space="preserve"
             style="font-style:normal;font-variant:normal;font-weight:bold;font-stretch:normal;font-size:16.9333px;font-family:'Tiresias Signfont Z';-inkscape-font-specification:'Tiresias Signfont Z, Bold';font-variant-ligatures:normal;font-variant-caps:normal;font-variant-numeric:normal;font-variant-east-asian:normal;fill:#a63fd9;fill-opacity:1;fill-rule:evenodd;stroke:#000000;stroke-width:0.264583"
             x="57.441872"
             y="142.44366"
             id="text113-3-0-5-85"><tspan
               sodipodi:role="line"
               id="tspan111-9-9-54-61"
               style="font-style:normal;font-variant:normal;font-weight:bold;font-stretch:normal;font-size:16.9333px;font-family:'Tiresias Signfont Z';-inkscape-font-specification:'Tiresias Signfont Z, Bold';font-variant-ligatures:normal;font-variant-caps:normal;font-variant-numeric:normal;font-variant-east-asian:normal;fill:#a63fd9;fill-opacity:1;stroke-width:0.264583"
               x="57.441872"
               y="142.44366">Fre</tspan></text>
          <text
             xml:space="preserve"
             style="font-style:normal;font-variant:normal;font-weight:bold;font-stretch:normal;font-size:16.9333px;font-family:'Tiresias Signfont Z';-inkscape-font-specification:'Tiresias Signfont Z, Bold';font-variant-ligatures:normal;font-variant-caps:normal;font-variant-numeric:normal;font-variant-east-asian:normal;fill:#a63fd9;fill-opacity:1;fill-rule:evenodd;stroke:#000000;stroke-width:0.264583"
             x="83.123192"
             y="142.44366"
             id="text113-3-0-4-7-1"><tspan
               sodipodi:role="line"
               id="tspan111-9-9-5-6-5"
               style="font-style:normal;font-variant:normal;font-weight:bold;font-stretch:normal;font-size:16.9333px;font-family:'Tiresias Signfont Z';-inkscape-font-specification:'Tiresias Signfont Z, Bold';font-variant-ligatures:normal;font-variant-caps:normal;font-variant-numeric:normal;font-variant-east-asian:normal;fill:#a63fd9;fill-opacity:1;stroke-width:0.264583"
               x="83.123192"
               y="142.44366">E</tspan></text>
        </g>
        <g
           id="g30700"
           transform="matrix(1.0561116,0,0,1.0561116,412.7179,190.25417)">
          <g
             id="g14502-4-8"
             transform="matrix(0.41981489,0,0,0.41981489,-4941.9159,-669.61761)">
            <path
               style="fill:#333333;fill-opacity:1;stroke-width:3.98382"
               d="m -1031.7886,1883.8753 c 0,-1.7424 -5.0914,-18.3204 -11.3143,-36.8399 l -11.3142,-33.6718 -23.7611,-7.0954 c -13.0686,-3.9024 -37.1089,-13.8067 -53.4229,-22.0094 l -29.6618,-14.9141 -32.0459,16.9085 -32.0459,16.9086 -44.7353,-44.8627 -44.7354,-44.8626 16.5454,-31.404 16.5453,-31.4041 -13.0764,-26.2061 c -7.192,-14.4134 -17.0767,-38.7551 -21.966,-54.0928 l -8.8896,-27.8868 -35.3209,-12.183 -35.3208,-12.1831 -1.0927,-61.6431 -1.0927,-61.643 36.3447,-11.8864 36.3447,-11.8865 8.9584,-27.8264 c 4.9272,-15.3045 14.8142,-39.561 21.9712,-53.9032 l 13.0127,-26.0769 -16.7443,-33.303 -16.7444,-33.3029 43.559,-43.559 43.559,-43.559 33.3029,16.7444 33.303,16.7443 26.0769,-13.0127 c 14.3422,-7.157 38.5987,-17.044 53.9032,-21.9712 l 27.8264,-8.9584 11.8548,-36.248 11.8549,-36.2479 61.90624,0.069 61.90625,0.069 11.95147,36.2708 11.95147,36.2709 27.88675,8.8164 c 15.33772,4.8489 39.45096,14.6979 53.58501,21.8865 l 25.69828,13.0702 26.09141,-13.2959 c 14.35029,-7.3128 29.14537,-14.6024 32.87797,-16.1993 5.14989,-2.2032 17.43715,7.5631 50.95098,40.4975 l 44.16446,43.4008 -16.43893,32.6955 -16.43896,32.6954 14.04943,30.2741 c 7.72718,16.6507 17.612,41.0183 21.96628,54.1501 l 7.91685,23.8761 36.24231,11.8529 36.2423,11.853 -1.09272,61.6217 -1.09268,61.6216 -35.99746,11.7685 -35.99743,11.7685 -7.14016,24.2275 c -3.92709,13.3251 -13.58747,37.4493 -21.46747,53.6095 l -14.32734,29.382 16.3024,32.8711 16.30236,32.871 -44.48962,44.2401 -44.48965,44.24 -32.08687,-16.786 -32.0869,-16.7859 -29.00278,14.5819 c -15.95151,8.02 -40.24952,17.8028 -53.9955,21.7395 l -24.99271,7.1576 -10.52534,32.3196 c -5.78889,17.7757 -12.15158,35.8478 -12.15158,38.4562 -24.31315,0.3901 -37.80457,0.3951 -59.74943,0.3356 -20.57152,-0.1324 -28.59075,0.01 -66.10659,-0.1554 z m 131.46612,-186.3491 c 41.71636,-12.295 75.78637,-33.2042 109.55513,-67.2355 35.94798,-36.2273 53.18108,-66.6569 65.88899,-116.3444 28.30228,-110.6608 -29.06712,-231.8362 -133.67441,-282.3466 -124.20324,-59.9725 -271.91343,-10.2549 -333.97313,112.4115 -37.6489,74.4164 -34.4016,168.9084 8.2273,239.4082 38.2473,63.2533 102.1362,107.1279 175.4703,120.5012 25.88899,4.7211 82.01364,1.4136 108.50582,-6.3944 z"
               id="path14504-1-8"
               sodipodi:nodetypes="cscsscccccccsscccccccsscccccccsscccccccsscssscccsscccccccsscccccccsscscccssssssss"
               inkscape:label="path14504" />
          </g>
          <text
             xml:space="preserve"
             style="font-style:normal;font-variant:normal;font-weight:bold;font-stretch:normal;font-size:137.884px;font-family:Waree;-inkscape-font-specification:'Waree, Bold';font-variant-ligatures:normal;font-variant-caps:normal;font-variant-numeric:normal;font-variant-east-asian:normal;text-align:center;text-anchor:middle;fill:#392b8b;fill-opacity:1;fill-rule:evenodd;stroke:none;stroke-width:5.17059;stroke-miterlimit:5"
             x="-6168.375"
             y="-2.0537248"
             id="text17590-4"
             transform="scale(0.86626092,1.1543866)"><tspan
               sodipodi:role="line"
               id="tspan17588-9"
               x="-6168.375"
               y="-2.0537248"
               style="font-style:normal;font-variant:normal;font-weight:bold;font-stretch:normal;font-size:137.884px;font-family:Waree;-inkscape-font-specification:'Waree, Bold';font-variant-ligatures:normal;font-variant-caps:normal;font-variant-numeric:normal;font-variant-east-asian:normal;stroke-width:5.17059">ΔG</tspan></text>
        </g>
      </g>
    </g>
  </g>
</svg>
