<?xml version="1.0" encoding="UTF-8" standalone="no"?>
<!-- Created with Inkscape (http://www.inkscape.org/) -->

<svg
   width="335.26355mm"
   height="111.56242mm"
   viewBox="0 0 335.26355 111.56242"
   version="1.1"
   id="svg23018"
   inkscape:version="1.2.2 (b0a8486541, 2022-12-01)"
   sodipodi:docname="logo.svg"
   xmlns:inkscape="http://www.inkscape.org/namespaces/inkscape"
   xmlns:sodipodi="http://sodipodi.sourceforge.net/DTD/sodipodi-0.dtd"
   xmlns="http://www.w3.org/2000/svg"
   xmlns:svg="http://www.w3.org/2000/svg">
  <sodipodi:namedview
     id="namedview23020"
     pagecolor="#ffffff"
     bordercolor="#000000"
     borderopacity="0.25"
     inkscape:showpageshadow="2"
     inkscape:pageopacity="0.0"
     inkscape:pagecheckerboard="0"
     inkscape:deskcolor="#d1d1d1"
     inkscape:document-units="mm"
     showgrid="false"
     inkscape:zoom="0.73851712"
     inkscape:cx="566.6761"
     inkscape:cy="175.35139"
     inkscape:window-width="1920"
     inkscape:window-height="996"
     inkscape:window-x="0"
     inkscape:window-y="0"
     inkscape:window-maximized="1"
     inkscape:current-layer="g18486" />
  <defs
     id="defs23015" />
  <g
     inkscape:label="Layer 1"
     inkscape:groupmode="layer"
     id="layer1"
     transform="translate(48.764173,-108.36583)">
    <g
       id="g18486"
       transform="matrix(0.26458333,0,0,0.26458333,1614.608,129.78128)"
       inkscape:export-filename="../PycharmProjects/xBFreE/docs/assets/logo.svg"
       inkscape:export-xdpi="96"
       inkscape:export-ydpi="96">
      <path
         style="fill:#ffffff;fill-opacity:1;fill-rule:evenodd;stroke:none;stroke-miterlimit:5"
         id="path12260-9"
         d="m -6267.5194,117.86064 c -35.7709,22.64045 -15.8638,63.80595 12.679,107.71767 44.3406,53.41635 4.7254,38.50757 52.3676,38.46375 83.2211,19.70092 92.478,69.49113 190.3218,74.6606 65.5676,10.8768 107.0176,-24.13927 157.5733,-62.72909 54.4769,-38.63104 131.1627,-23.08536 201.9926,-3.57647 76.9626,17.86197 116.0615,18.83586 195.1375,-8.64827 48.1494,-20.63729 154.7509,80.08444 209.271,55.02323 57.762,2.65148 156.3731,24.5454 191.9081,-9.6194 27.3596,-26.30455 -12.3701,-116.81081 -4.607,-164.09122 7.7567,-47.241312 -2.081,-117.607213 -24.9397,-149.0263793 -19.6023,-26.9431497 -93.5385,-57.3926687 -116.2229,-63.7901887 -149.5572,-42.178602 -209.4957,48.44908 -224.9618,14.03625 -51.7295,-56.943532 -78.6523,-8.3185 -147.3813,7.52711 -21.8994,4.34112 -79.374,-9.53695 -117.3133,-9.50194 -37.9393,0.035 -109.2183,47.560053 -148.0097,24.43276 -62.5154,-67.62265 -164.2295,-51.13343 -227.8015,-11.17849 -23.4096,-51.94374 -80.2824,-45.68206 -149.7453,-14.51123 -60.3114,30.64418 -38.0007,73.671315 2.3073,134.981778 z"
         sodipodi:nodetypes="ccccccccssssccsccccc" />
      <g
         id="g9139-6-5"
         transform="matrix(12.299145,0,0,12.299145,-6606.6069,-1563.4234)"
         style="fill:#a63fd9;fill-opacity:1">
        <text
           xml:space="preserve"
           style="font-style:normal;font-variant:normal;font-weight:normal;font-stretch:normal;font-size:50.8px;font-family:Z003;-inkscape-font-specification:'Z003, Normal';font-variant-ligatures:normal;font-variant-caps:normal;font-variant-numeric:normal;font-variant-east-asian:normal;fill:#a63fd9;fill-opacity:1;fill-rule:evenodd;stroke:#000000;stroke-width:0.264583"
           x="26.274858"
           y="143.43738"
           id="text113-32-0"><tspan
             sodipodi:role="line"
             id="tspan111-0-9"
             style="font-style:normal;font-variant:normal;font-weight:normal;font-stretch:normal;font-size:50.8px;font-family:Z003;-inkscape-font-specification:'Z003, Normal';font-variant-ligatures:normal;font-variant-caps:normal;font-variant-numeric:normal;font-variant-east-asian:normal;fill:#a63fd9;fill-opacity:1;stroke-width:0.264583"
             x="26.274858"
             y="143.43738">x</tspan></text>
        <text
           xml:space="preserve"
           style="font-style:normal;font-variant:normal;font-weight:bold;font-stretch:normal;font-size:16.9333px;font-family:'Tiresias Signfont Z';-inkscape-font-specification:'Tiresias Signfont Z, Bold';font-variant-ligatures:normal;font-variant-caps:normal;font-variant-numeric:normal;font-variant-east-asian:normal;fill:#a63fd9;fill-opacity:1;fill-rule:evenodd;stroke:#000000;stroke-width:0.264583"
           x="47.165863"
           y="142.44366"
           id="text113-3-6-6"><tspan
             sodipodi:role="line"
             id="tspan111-9-1-3"
             style="font-style:normal;font-variant:normal;font-weight:bold;font-stretch:normal;font-size:16.9333px;font-family:'Tiresias Signfont Z';-inkscape-font-specification:'Tiresias Signfont Z, Bold';font-variant-ligatures:normal;font-variant-caps:normal;font-variant-numeric:normal;font-variant-east-asian:normal;fill:#a63fd9;fill-opacity:1;stroke-width:0.264583"
             x="47.165863"
             y="142.44366">B</tspan></text>
        <text
           xml:space="preserve"
           style="font-style:normal;font-variant:normal;font-weight:bold;font-stretch:normal;font-size:16.9333px;font-family:'Tiresias Signfont Z';-inkscape-font-specification:'Tiresias Signfont Z, Bold';font-variant-ligatures:normal;font-variant-caps:normal;font-variant-numeric:normal;font-variant-east-asian:normal;fill:#a63fd9;fill-opacity:1;fill-rule:evenodd;stroke:#000000;stroke-width:0.264583"
           x="57.441872"
           y="142.44366"
           id="text113-3-0-5-85"><tspan
             sodipodi:role="line"
             id="tspan111-9-9-54-61"
             style="font-style:normal;font-variant:normal;font-weight:bold;font-stretch:normal;font-size:16.9333px;font-family:'Tiresias Signfont Z';-inkscape-font-specification:'Tiresias Signfont Z, Bold';font-variant-ligatures:normal;font-variant-caps:normal;font-variant-numeric:normal;font-variant-east-asian:normal;fill:#a63fd9;fill-opacity:1;stroke-width:0.264583"
             x="57.441872"
             y="142.44366">Fre</tspan></text>
        <text
           xml:space="preserve"
           style="font-style:normal;font-variant:normal;font-weight:bold;font-stretch:normal;font-size:16.9333px;font-family:'Tiresias Signfont Z';-inkscape-font-specification:'Tiresias Signfont Z, Bold';font-variant-ligatures:normal;font-variant-caps:normal;font-variant-numeric:normal;font-variant-east-asian:normal;fill:#a63fd9;fill-opacity:1;fill-rule:evenodd;stroke:#000000;stroke-width:0.264583"
           x="83.123192"
           y="142.44366"
           id="text113-3-0-4-7-1"><tspan
             sodipodi:role="line"
             id="tspan111-9-9-5-6-5"
             style="font-style:normal;font-variant:normal;font-weight:bold;font-stretch:normal;font-size:16.9333px;font-family:'Tiresias Signfont Z';-inkscape-font-specification:'Tiresias Signfont Z, Bold';font-variant-ligatures:normal;font-variant-caps:normal;font-variant-numeric:normal;font-variant-east-asian:normal;fill:#a63fd9;fill-opacity:1;stroke-width:0.264583"
             x="83.123192"
             y="142.44366">E</tspan></text>
      </g>
      <g
         id="g53389"
         transform="translate(-1680.646,-571.85054)">
        <path
           d="m -3585.048,505.15704 c 64.1015,-0.008 123.0484,35.12497 153.5376,91.51116 30.4893,56.38618 27.6131,124.9487 -7.4915,178.58323 l 57.183,64.67613 -53.9327,39.34662 -52.6483,-54.36445 c -45.9745,30.59277 -103.7172,37.61644 -155.6849,18.937 -51.9676,-18.67943 -92.0252,-60.8568 -108.0028,-113.71775 -15.9777,-52.86095 -5.9894,-110.16513 26.9308,-154.50268 32.9202,-44.33754 84.8859,-70.47423 140.1088,-70.46926 z m 60.0716,106.34557 -6.1179,-7.80996 c -0.9069,-1.04451 -1.236,-2.47108 -0.8785,-3.80733 1.0413,-3.25416 4.7836,-2.86367 7.3544,-2.70096 7.3544,0.55321 24.7316,0.68337 28.5064,0.84608 2.6202,0.0125 4.5452,2.46271 3.9373,5.0114 -0.7809,3.83989 -4.2953,22.25837 -5.5645,29.28733 -0.4556,2.4406 -1.1715,5.56459 -4.2304,5.79239 -1.3893,0.0637 -2.7148,-0.58682 -3.5144,-1.72471 l -6.1179,-7.80996 -2.4732,-3.25413 -30.0684,22.77904 v 0.52067 c 0.037,10.10872 -8.1469,18.32332 -18.2556,18.32332 -10.1088,0 -18.2931,-8.2146 -18.2557,-18.32332 v -1.20404 l -21.1847,-15.29451 c -6.7216,4.65497 -15.7163,4.28296 -22.0305,-0.91116 l -20.5336,14.61115 c 4.6479,16.87232 -14.8076,29.97858 -28.6985,19.34103 -13.8909,-10.63755 -6.3096,-32.83698 11.191,-32.74814 2.5448,-0.005 5.062,0.5276 7.3871,1.56197 l 24.1457,-17.21444 c 0.1511,-10.0771 8.4387,-18.12586 18.5159,-17.98215 10.0772,0.1437 18.1321,8.42551 17.9957,18.50282 v 1.20404 l 21.1844,15.29449 c 6.4198,-4.46052 14.9694,-4.32959 21.2496,0.32543 l 27.7255,-21.15199 -1.1716,-1.46436 z m -0.2603,47.05502 h 25.1871 c 1.4483,0.0176 2.6181,1.18751 2.6357,2.63585 v 97.78715 c -0.017,1.44836 -1.1873,2.61825 -2.6357,2.6359 h -25.1871 c -1.4558,8e-5 -2.636,-1.18008 -2.636,-2.6359 v -97.62444 c 0.018,-1.44847 1.1875,-2.61839 2.636,-2.63587 z m -49.7885,33.51772 h 25.1872 c 1.4557,9e-5 2.6357,1.18017 2.6357,2.63585 v 64.26943 c 0,1.4557 -1.18,2.63581 -2.6357,2.6359 h -25.122 c -1.4558,8e-5 -2.636,-1.18008 -2.636,-2.6359 V 694.7112 c 0,-1.4558 1.1802,-2.63593 2.636,-2.63585 z m -49.7884,-33.51772 h 25.1545 c 1.5983,-0.12209 2.9347,1.19891 2.8311,2.79856 v 97.62444 c 0,1.45578 -1.1801,2.63592 -2.6359,2.6359 h -25.2848 c -1.4557,-9e-5 -2.6357,-1.1802 -2.6357,-2.6359 v -97.62444 c 0.018,-1.44835 1.1873,-2.61823 2.6357,-2.63587 z m -49.7887,39.04977 h 25.1547 c 1.4558,-8e-5 2.636,1.18007 2.636,2.63587 v 58.73736 c 0,1.45582 -1.1802,2.63598 -2.636,2.6359 h -25.0895 c -1.4558,8e-5 -2.636,-1.18008 -2.636,-2.6359 v -58.86752 c 0,-1.4558 1.1802,-2.63595 2.636,-2.63587 z m 191.837,-125.4713 c -52.3645,-52.2201 -127.5538,-56.39218 -188.9815,-15.23146 -61.427,41.16019 -80.3883,113.66305 -52.0106,181.95189 28.3776,68.28884 95.9836,102.55479 168.4907,88.05832 72.508,-14.49665 121.5892,-75.24042 121.5223,-149.19299 0.02,-41.15299 -19.8406,-76.56716 -49.0209,-105.58576 z"
           id="path4-0"
           style="stroke-width:3.25413"
           sodipodi:nodetypes="csccccsssccccccccccccccscccccscccscccccccccccccccccccsccccsccccccscccccccsccccscccssscc" />
        <path
           style="fill:#33fd8d;fill-opacity:1;fill-rule:evenodd;stroke:none;stroke-width:0.619823;stroke-miterlimit:5"
           d="m -3676.0489,760.3994 c -1.0716,-1.07161 -1.0716,-60.66281 0,-61.73442 1.0537,-1.0537 27.2103,-1.0537 28.264,0 1.0716,1.07161 1.0716,60.66281 0,61.73442 -1.0537,1.0537 -27.2103,1.0537 -28.264,0 z"
           id="path41502" />
        <path
           style="fill:#21dbfd;fill-opacity:1;fill-rule:evenodd;stroke:none;stroke-width:0.619823;stroke-miterlimit:5"
           d="m -3626.463,760.3994 c -0.5661,-0.56607 -0.7438,-12.55192 -0.7438,-50.16143 0,-44.09869 0.1049,-49.52247 0.974,-50.39164 0.8248,-0.82479 2.9852,-0.97256 14.101,-0.96452 7.2199,0.005 13.5454,0.27391 14.0567,0.59709 0.8113,0.51274 0.9509,6.81953 1.0957,49.50724 0.1061,31.2943 -0.056,49.50284 -0.4496,50.53834 l -0.6154,1.61871 h -13.8374 c -9.936,0 -14.0471,-0.20972 -14.5812,-0.74379 z"
           id="path43646" />
        <path
           style="fill:#3e56fd;fill-opacity:1;fill-rule:evenodd;stroke:none;stroke-width:0.619823;stroke-miterlimit:5"
           d="m -3576.5879,760.72997 c -0.2272,-0.22727 -0.4132,-15.37265 -0.4132,-33.65641 0,-25.02939 0.1838,-33.42698 0.7438,-33.98699 0.5318,-0.53178 4.4942,-0.74379 13.9018,-0.74379 11.1353,0 13.3077,0.14973 14.1319,0.97401 0.8605,0.86049 0.974,4.73019 0.974,33.2013 0,21.02978 -0.2229,32.64386 -0.6416,33.4262 -0.6049,1.13029 -1.4326,1.1989 -14.4625,1.1989 -7.6015,0 -14.0069,-0.18595 -14.2342,-0.41322 z"
           id="path45169" />
        <path
           style="fill:#aa34fd;fill-opacity:1;fill-rule:evenodd;stroke:none;stroke-width:0.619823;stroke-miterlimit:5"
           d="m -3527.002,760.72997 c -0.2273,-0.22727 -0.4132,-22.90351 -0.4132,-50.39165 0,-38.04568 0.1776,-50.15601 0.7438,-50.72221 1.0537,-1.05371 27.2102,-1.05371 28.2639,0 1.0772,1.07721 1.0772,99.70608 0,100.78329 -0.805,0.80503 -27.8079,1.1172 -28.5945,0.33057 z"
           id="path46692" />
        <path
           style="fill:#fd36bf;fill-opacity:1;fill-rule:evenodd;stroke:none;stroke-width:0.619823;stroke-miterlimit:5"
           d="m -3666.0499,668.23046 c -3.1189,-0.79937 -7.3535,-3.55363 -9.7273,-6.32692 -4.1002,-4.79009 -5.179,-11.29846 -2.8875,-17.41887 1.6336,-4.36312 4.1352,-7.27021 8.1598,-9.48233 2.8398,-1.56092 3.9913,-1.82503 7.9682,-1.82777 2.5568,-0.002 5.4931,0.22356 6.5252,0.50072 1.7314,0.46491 2.7949,-0.14859 13.7428,-7.9276 l 11.8661,-8.43151 0.666,-3.10561 c 1.9027,-8.87179 8.7524,-14.79735 17.1402,-14.82769 9.7446,-0.0353 17.1419,6.47041 18.1745,15.9837 l 0.3757,3.4606 8.3676,6.074 c 4.6022,3.3407 9.3868,6.79179 10.6324,7.6691 l 2.2647,1.5951 2.6938,-1.42078 c 3.9189,-2.06685 11.4023,-2.04942 15.6398,0.0364 2.4575,1.20962 3.2476,1.35423 4.1886,0.76658 3.2278,-2.0158 26.563,-20.15691 26.563,-20.65044 0,-0.31499 -1.8129,-2.8182 -4.0288,-5.5627 -4.3352,-5.36945 -4.9055,-7.28092 -2.6445,-8.86454 1.2076,-0.84589 3.5215,-0.92016 18.1298,-0.58195 18.6556,0.43192 19.5386,0.61865 19.5295,4.12983 0,1.10007 -1.3494,9.05682 -2.9924,17.68167 -2.3812,12.50063 -3.2488,15.94321 -4.2771,16.97154 -2.2126,2.21256 -3.9534,1.13676 -9.2146,-5.6947 -3.1116,-4.04024 -5.0066,-6.00916 -5.4518,-5.66449 -0.8837,0.68415 -29.1391,21.96401 -29.368,22.11781 -0.095,0.0642 -0.4254,1.66306 -0.733,3.55304 -0.7065,4.34136 -2.3676,7.57275 -5.394,10.4933 -10.5189,10.15108 -28.1686,3.8775 -29.8367,-10.60544 l -0.4322,-3.75254 -10.6645,-7.67778 -10.6645,-7.67777 -3.1512,1.55953 c -5.3548,2.65007 -12.9561,1.88988 -18.0339,-1.80355 -0.8153,-0.59302 -2.7458,0.53125 -11.1568,6.4972 l -10.1709,7.21431 -0.033,5.11667 c -0.037,5.62646 -1.0838,8.43746 -4.6617,12.51248 -3.7014,4.21567 -11.7498,6.74335 -17.1031,5.37137 z"
           id="path47489" />
      </g>
    </g>
  </g>
</svg>
